<svg xmlns="http://www.w3.org/2000/svg" version="1.1" xmlns:xlink="http://www.w3.org/1999/xlink" xmlns:svgjs="http://svgjs.dev/svgjs" width="128" height="128" viewBox="0 0 128 128"><g transform="matrix(0.8046875,0,0,0.8046875,12.221578124999994,12.208743501099256)"><svg viewBox="0 0 96 96" data-background-color="#111111" preserveAspectRatio="xMidYMid meet" height="128" width="128" xmlns="http://www.w3.org/2000/svg" xmlns:xlink="http://www.w3.org/1999/xlink"><g id="tight-bounds" transform="matrix(1,0,0,1,0.25950000000000273,0.271462367907489)"><svg viewBox="0 0 95.481 95.45707526418502" height="95.45707526418502" width="95.481"><g><svg viewBox="0 0 95.481 95.45707526418502" height="95.45707526418502" width="95.481"><g><svg viewBox="0 0 95.481 95.45707526418502" height="95.45707526418502" width="95.481"><g id="textblocktransform"><svg viewBox="0 0 95.481 95.45707526418502" height="95.45707526418502" width="95.481" id="textblock"><g><svg viewBox="0 0 95.481 95.45707526418502" height="95.45707526418502" width="95.481"><g><svg viewBox="0 0 95.481 95.45707526418502" height="95.45707526418502" width="95.481"><g><svg xmlns="http://www.w3.org/2000/svg" xmlns:xlink="http://www.w3.org/1999/xlink" version="1.1" x="0" y="0" viewBox="0.987969594543505 1 48.01203040545649 48" enable-background="new 0 0 50 50" xml:space="preserve" height="95.45707526418502" width="95.481" class="icon-icon-0" data-fill-palette-color="accent" id="icon-0"></svg></g></svg></g></svg></g></svg></g></svg></g><g></g></svg></g><defs></defs><mask id="7ddf689b-d4ad-48a9-9d6f-16215bf59432"><g id="SvgjsG3983"><svg viewBox="0 0 95.481 95.45707526418502" height="95.45707526418502" width="95.481"><g><svg viewBox="0 0 95.481 95.45707526418502" height="95.45707526418502" width="95.481"><g><svg viewBox="0 0 95.481 95.45707526418502" height="95.45707526418502" width="95.481"><g id="SvgjsG3982"><svg viewBox="0 0 95.481 95.45707526418502" height="95.45707526418502" width="95.481" id="SvgjsSvg3981"><g><svg viewBox="0 0 95.481 95.45707526418502" height="95.45707526418502" width="95.481"><g><svg viewBox="0 0 95.481 95.45707526418502" height="95.45707526418502" width="95.481"><g><svg xmlns="http://www.w3.org/2000/svg" xmlns:xlink="http://www.w3.org/1999/xlink" version="1.1" x="0" y="0" viewBox="0.987969594543505 1 48.01203040545649 48" enable-background="new 0 0 50 50" xml:space="preserve" height="95.45707526418502" width="95.481" class="icon-icon-0" data-fill-palette-color="accent" id="SvgjsSvg3980"><g fill="white"><path d="M23.9 22.7C22.5 22.4 21 22.8 20 23.9 18.3 25.6 18.3 28.4 20 30 21.7 31.7 24.5 31.7 26.1 30 27.2 28.9 27.6 27.4 27.3 26 27.6 25.9 38.5 14.9 38.7 14.7L35.2 11.2C35 11.5 24 22.4 23.9 22.7" fill="white"></path><path d="M48.7 8.7L47.9 8 48.5 7.4C48.9 7 48.9 6.4 48.5 6L44 1.5C43.6 1.1 43 1.1 42.6 1.5L42 2.1 41.2 1.3C40.8 0.9 40.2 0.9 39.8 1.3S39.4 2.3 39.8 2.7L40.6 3.5 38.2 5.9 37.4 5.1C37 4.7 36.4 4.7 36 5.1S35.6 6.1 36 6.5L36.8 7.3 36.2 7.9C35.8 8.2 35.8 8.9 36.2 9.3L40.7 13.8C41.1 14.2 41.7 14.2 42.1 13.8L42.7 13.2 43.5 14C43.9 14.4 44.5 14.4 44.9 14S45.3 13 44.9 12.6L44.1 11.8 46.5 9.4 47.3 10.2C47.7 10.6 48.3 10.6 48.7 10.2S49.1 9.1 48.7 8.7" fill="white"></path><path d="M29.4 26.9C29.4 28.6 28.8 30.2 27.5 31.4 25 33.9 21 33.9 18.5 31.4 16 29 16 24.9 18.5 22.4 19.7 21.2 21.2 20.5 23 20.5L26.4 17.1C24.9 16.4 23.4 16 22 16 18.7 16 16.8 17.8 15.6 20.9 15 22.3 13.8 23.2 12.2 23.4 8.5 23.9 5.1 25.3 3.2 27.2-0.6 31.1 0.6 38.6 6 44 9.1 47.1 13.2 49 16.8 49 19.2 49 21.2 48.2 22.7 46.7 24.6 44.8 26 41.4 26.5 37.7 26.7 36.2 27.7 34.9 29 34.3 34.1 32.2 34.9 27.9 32.7 23.4zM17.5 39.8C17.3 40 17.1 40.1 16.8 40.1S16.3 40 16.1 39.8L10.2 33.9C9.8 33.5 9.8 32.9 10.2 32.5S11.2 32.1 11.6 32.5L17.5 38.4C17.9 38.7 17.9 39.4 17.5 39.8" fill="white"></path></g></svg></g></svg></g></svg></g></svg></g></svg></g><g></g></svg></g><defs><mask></mask></defs></svg><rect width="95.481" height="95.45707526418502" fill="black" stroke="none" visibility="hidden"></rect></g></mask><linearGradient x1="0" x2="1" y1="0.5" y2="0.5" id="d99fdfcd-aa7f-4bf6-aba9-f167a6d38be1"><stop stop-color="#f00b51" offset="0"></stop><stop stop-color="#730062" offset="1"></stop></linearGradient><rect width="95.481" height="95.45707526418502" fill="url(#d99fdfcd-aa7f-4bf6-aba9-f167a6d38be1)" mask="url(#7ddf689b-d4ad-48a9-9d6f-16215bf59432)" data-fill-palette-color="accent"></rect></svg><rect width="95.481" height="95.45707526418502" fill="none" stroke="none" visibility="hidden"></rect></g></svg></g></svg>